<svg xmlns="http://www.w3.org/2000/svg" xmlns:xlink="http://www.w3.org/1999/xlink" width="500" zoomAndPan="magnify" viewBox="0 0 375 374.999991" height="500" preserveAspectRatio="xMidYMid meet" version="1.2"><defs><clipPath id="7983e4a335"><path d="M 68 67.753906 L 307.003906 67.753906 L 307.003906 307.003906 L 68 307.003906 Z M 68 67.753906 "/></clipPath><clipPath id="a4ead693c8"><path d="M 67.753906 71.503906 L 67.753906 303.496094 C 67.753906 305.566406 69.433594 307.246094 71.503906 307.246094 L 303.496094 307.246094 C 305.566406 307.246094 307.246094 305.566406 307.246094 303.496094 L 307.246094 71.503906 C 307.246094 69.433594 305.566406 67.753906 303.496094 67.753906 L 71.503906 67.753906 C 69.433594 67.753906 67.753906 69.433594 67.753906 71.503906 Z M 67.753906 71.503906 "/></clipPath><clipPath id="f25f0dab84"><path d="M 262 246 L 272 246 L 272 256 L 262 256 Z M 262 246 "/></clipPath><clipPath id="41cadf0745"><path d="M 67.753906 71.503906 L 67.753906 303.496094 C 67.753906 305.566406 69.433594 307.246094 71.503906 307.246094 L 303.496094 307.246094 C 305.566406 307.246094 307.246094 305.566406 307.246094 303.496094 L 307.246094 71.503906 C 307.246094 69.433594 305.566406 67.753906 303.496094 67.753906 L 71.503906 67.753906 C 69.433594 67.753906 67.753906 69.433594 67.753906 71.503906 Z M 67.753906 71.503906 "/></clipPath></defs><g id="0640ae9e70"><g clip-rule="nonzero" clip-path="url(#7983e4a335)"><g clip-rule="nonzero" clip-path="url(#a4ead693c8)"><path style=" stroke:none;fill-rule:nonzero;fill:#1c398e;fill-opacity:1;" d="M 105.3125 68.269531 C 98.484375 69.390625 92.589844 72.945312 85.714844 80.007812 C 78.746094 87.210938 74.769531 93.480469 71.964844 101.804688 C 67.238281 115.882812 68.503906 132.207031 75.378906 145.070312 C 78.746094 151.433594 82.769531 156.015625 97.78125 170.9375 C 113.40625 186.421875 114.855469 187.542969 120.84375 189.132812 C 124.398438 190.023438 130.242188 190.023438 133.890625 189.085938 C 138.148438 188.011719 141.65625 185.90625 145.867188 181.976562 L 149.703125 178.46875 L 155.503906 184.269531 L 161.300781 190.070312 L 153.164062 198.207031 C 145.117188 206.253906 145.023438 206.300781 143.949219 205.550781 C 143.339844 205.128906 142.03125 204.800781 140.957031 204.800781 C 139.132812 204.800781 138.804688 205.082031 105.96875 237.871094 C 87.773438 256.113281 72.242188 271.921875 71.496094 273.046875 C 68.828125 277.023438 68.035156 279.828125 68.035156 285.253906 C 68.082031 289.230469 68.269531 290.679688 69.109375 292.878906 C 70.652344 296.855469 74.019531 301.0625 77.484375 303.355469 C 81.597656 306.117188 84.734375 307.003906 90.207031 306.957031 C 95.117188 306.957031 98.15625 306.023438 101.945312 303.496094 C 103.066406 302.746094 118.878906 287.21875 137.121094 269.023438 C 169.910156 236.1875 170.1875 235.859375 170.1875 234.035156 C 170.1875 232.960938 169.863281 231.652344 169.441406 231.042969 C 168.691406 229.96875 168.738281 229.875 176.785156 221.828125 L 184.921875 213.6875 L 191.984375 220.753906 L 199.097656 227.863281 L 197.503906 229.921875 C 196.382812 231.417969 195.914062 232.492188 195.914062 233.707031 C 195.914062 235.347656 197.273438 236.796875 229.21875 268.789062 C 247.554688 287.125 263.410156 302.746094 264.441406 303.449219 C 268.789062 306.488281 275.339844 307.847656 280.671875 306.816406 C 292.222656 304.570312 300.269531 293.300781 298.398438 281.886719 C 297.507812 276.367188 295.636719 273.140625 289.792969 267.152344 C 287.03125 264.300781 284.085938 261.679688 283.335938 261.398438 C 280.4375 260.183594 277.300781 262.382812 277.300781 265.65625 C 277.300781 267.480469 277.582031 267.855469 282.167969 272.578125 C 284.832031 275.292969 287.453125 278.378906 287.96875 279.453125 C 290.351562 284.179688 289.605469 289.511719 285.957031 293.578125 C 282.449219 297.507812 277.441406 298.820312 272.34375 297.132812 C 270.285156 296.433594 267.714844 294.046875 246.292969 272.671875 L 222.578125 249.003906 L 231.558594 240.023438 L 240.539062 230.996094 L 245.308594 235.671875 C 249.566406 239.882812 250.21875 240.351562 251.765625 240.351562 C 255.273438 240.351562 257.421875 237.308594 256.113281 234.175781 C 255.691406 233.289062 249.425781 226.644531 241.191406 218.460938 C 227.769531 205.128906 226.878906 204.335938 225.289062 204.335938 C 224.074219 204.335938 222.996094 204.800781 221.5 205.925781 L 219.441406 207.515625 L 205.269531 193.34375 L 210.042969 188.570312 L 214.859375 183.800781 L 223.980469 181.882812 C 252.980469 175.800781 275.058594 168.363281 286.375 160.929688 C 294.234375 155.734375 301.15625 146.289062 304.617188 135.996094 C 308.875 123.367188 307.707031 108.355469 301.625 96.285156 C 296.808594 86.742188 288.058594 78.042969 278.472656 73.273438 C 266.355469 67.238281 251.625 66.164062 238.996094 70.371094 C 230.246094 73.320312 220.660156 79.820312 215.886719 86.089844 C 207.609375 97.035156 199.84375 119.207031 193.109375 151.011719 L 191.191406 160.132812 L 186.421875 164.949219 L 181.648438 169.722656 L 175.800781 163.875 L 169.957031 158.027344 L 172.621094 155.363281 C 176.269531 151.621094 178.84375 147.738281 180.105469 144.089844 C 180.996094 141.46875 181.179688 140.019531 181.132812 135.578125 C 181.085938 129.589844 180.339844 126.640625 177.578125 122.292969 C 175.847656 119.484375 134.359375 77.621094 130.199219 74.441406 C 123.132812 69.0625 114.058594 66.816406 105.3125 68.269531 Z M 116.164062 77.808594 C 122.105469 79.402344 122.714844 79.867188 147.128906 104.378906 C 168.691406 125.988281 170.140625 127.578125 171.078125 130.105469 C 172.386719 133.707031 172.386719 137.960938 171.078125 141.515625 C 170.28125 143.574219 169.207031 145.070312 166.632812 147.738281 L 163.265625 151.199219 L 157.09375 145.210938 C 149.84375 138.148438 147.691406 136.886719 142.640625 136.886719 C 137.308594 136.886719 132.910156 139.363281 130.429688 143.667969 C 127.8125 148.253906 127.625 152.789062 129.824219 157.511719 C 130.242188 158.449219 133.332031 162.003906 136.699219 165.417969 L 142.78125 171.59375 L 139.738281 174.679688 C 138.101562 176.363281 135.714844 178.328125 134.40625 178.984375 C 132.300781 180.105469 131.554688 180.246094 127.390625 180.246094 C 120.28125 180.246094 120.375 180.292969 104.332031 164.390625 C 89.410156 149.609375 85.996094 145.539062 82.863281 139.039062 C 79.445312 131.789062 78.792969 128.699219 78.792969 119.207031 C 78.792969 111.675781 78.933594 110.691406 80.054688 106.902344 C 81.503906 102.226562 83.84375 97.363281 86.605469 93.246094 C 89.175781 89.503906 96.894531 81.785156 99.792969 80.101562 C 104.519531 77.34375 110.925781 76.453125 116.164062 77.808594 Z M 265.703125 78.464844 C 267.667969 78.980469 270.332031 79.867188 271.644531 80.429688 L 274.027344 81.457031 L 269.023438 83.890625 C 253.867188 91.1875 239.460938 104.285156 225.054688 123.882812 C 220.378906 130.242188 210.273438 145.023438 205.503906 152.554688 C 203.210938 156.0625 201.292969 158.871094 201.199219 158.777344 C 201.105469 158.683594 201.761719 155.175781 202.699219 150.964844 C 207.515625 128.839844 213.082031 110.925781 218.460938 100.027344 C 221.546875 93.761719 222.109375 92.964844 225.804688 89.269531 C 228.28125 86.835938 231.277344 84.453125 233.570312 83.09375 C 237.449219 80.804688 243.953125 78.371094 248.347656 77.621094 C 252.230469 76.921875 261.539062 77.34375 265.703125 78.464844 Z M 285.628906 91.890625 C 286.144531 100.542969 272.484375 120.515625 257.46875 133.097656 C 247.554688 141.421875 223.792969 157.980469 208.308594 167.382812 L 206.484375 168.503906 L 207.609375 166.679688 C 216.824219 151.480469 233.660156 127.34375 241.894531 117.523438 C 254.429688 102.554688 274.167969 89.035156 282.914062 89.410156 L 285.488281 89.503906 Z M 296.527344 109.195312 C 297.742188 113.964844 298.164062 121.261719 297.460938 125.753906 C 296.011719 134.875 292.082031 142.78125 285.722656 149.1875 C 282.027344 152.929688 281.277344 153.398438 274.964844 156.53125 C 265.5625 161.113281 255.550781 164.53125 240.023438 168.503906 C 229.78125 171.125 216.449219 174.023438 216.167969 173.746094 C 216.027344 173.652344 216.449219 173.277344 217.058594 172.949219 C 219.488281 171.6875 241.566406 156.8125 248.300781 151.949219 C 259.246094 143.996094 265.75 138.570312 271.457031 132.722656 C 280.625 123.273438 287.453125 113.917969 291.335938 105.546875 L 293.441406 100.964844 L 294.515625 103.253906 C 295.078125 104.519531 295.964844 107.183594 296.527344 109.195312 Z M 159.757812 161.394531 L 174.867188 176.503906 L 167.851562 183.519531 L 153.351562 169.019531 C 145.351562 161.066406 138.523438 153.816406 138.101562 152.976562 C 136.605469 149.796875 138.992188 146.335938 142.734375 146.335938 C 144.652344 146.335938 144.789062 146.476562 159.757812 161.394531 Z M 183.285156 201.761719 L 161.769531 223.277344 L 156.765625 218.226562 L 151.714844 213.222656 L 173.230469 191.707031 L 194.746094 170.1875 L 199.75 175.195312 L 204.800781 180.246094 Z M 209.246094 217.898438 L 205.738281 221.40625 L 191.472656 207.140625 L 198.488281 200.125 L 212.753906 214.390625 Z M 225.054688 233.429688 L 216.027344 242.457031 L 211.585938 238.011719 L 207.140625 233.570312 L 216.121094 224.585938 L 225.148438 215.558594 L 229.59375 220.003906 L 234.035156 224.449219 Z M 150.308594 224.914062 L 159.199219 233.800781 L 150.308594 242.691406 L 141.328125 233.707031 L 132.300781 224.679688 L 136.605469 220.378906 C 138.992188 217.992188 141.050781 216.027344 141.1875 216.027344 C 141.328125 216.027344 145.445312 220.003906 150.308594 224.914062 Z M 120.75 272.25 C 104.9375 288.0625 97.269531 295.402344 95.632812 296.339844 C 92.496094 298.070312 87.304688 298.210938 84.3125 296.621094 C 81.832031 295.3125 79.679688 293.160156 78.371094 290.679688 C 76.921875 287.921875 76.921875 282.542969 78.464844 279.640625 C 79.167969 278.238281 87.023438 270.050781 102.507812 254.476562 L 125.519531 231.464844 L 143.527344 249.472656 Z M 120.75 272.25 "/></g></g><g clip-rule="nonzero" clip-path="url(#f25f0dab84)"><g clip-rule="nonzero" clip-path="url(#41cadf0745)"><path style=" stroke:none;fill-rule:nonzero;fill:#1c398e;fill-opacity:1;" d="M 264.578125 246.710938 C 262.941406 247.601562 262.335938 248.722656 262.335938 251.015625 C 262.335938 252.558594 262.617188 253.121094 263.785156 254.101562 C 264.671875 254.898438 265.796875 255.320312 266.777344 255.320312 C 267.761719 255.320312 268.882812 254.898438 269.773438 254.101562 C 270.941406 253.121094 271.222656 252.558594 271.222656 251.015625 C 271.222656 248.675781 270.613281 247.554688 268.882812 246.664062 C 267.199219 245.777344 266.21875 245.824219 264.578125 246.710938 Z M 264.578125 246.710938 "/></g></g></g></svg>