<svg xmlns="http://www.w3.org/2000/svg" xmlns:xlink="http://www.w3.org/1999/xlink" width="500" zoomAndPan="magnify" viewBox="0 0 375 374.999991" height="500" preserveAspectRatio="xMidYMid meet" version="1.2"><defs><clipPath id="3060088871"><path d="M 72.65625 0.839844 L 217.5625 0.839844 L 217.5625 145.730469 L 72.65625 145.730469 Z M 72.65625 0.839844 "/></clipPath><clipPath id="7c072e4e72"><path d="M 72.65625 4.574219 L 72.65625 141.980469 C 72.65625 144.050781 74.332031 145.730469 76.40625 145.730469 L 213.8125 145.730469 C 215.882812 145.730469 217.5625 144.050781 217.5625 141.980469 L 217.5625 4.574219 C 217.5625 2.503906 215.882812 0.824219 213.8125 0.824219 L 76.40625 0.824219 C 74.332031 0.824219 72.65625 2.503906 72.65625 4.574219 Z M 72.65625 4.574219 "/></clipPath><clipPath id="cf9d63348a"><path d="M 190 108 L 196 108 L 196 115 L 190 115 Z M 190 108 "/></clipPath><clipPath id="a4b96f7587"><path d="M 72.65625 4.574219 L 72.65625 141.980469 C 72.65625 144.050781 74.332031 145.730469 76.40625 145.730469 L 213.8125 145.730469 C 215.882812 145.730469 217.5625 144.050781 217.5625 141.980469 L 217.5625 4.574219 C 217.5625 2.503906 215.882812 0.824219 213.8125 0.824219 L 76.40625 0.824219 C 74.332031 0.824219 72.65625 2.503906 72.65625 4.574219 Z M 72.65625 4.574219 "/></clipPath><clipPath id="b14f1437b1"><path d="M 0.921875 171 L 301.160156 171 L 301.160156 212.761719 L 0.921875 212.761719 Z M 0.921875 171 "/></clipPath><clipPath id="df01ad6747"><path d="M 185 11 L 206 11 L 206 41.761719 L 185 41.761719 Z M 185 11 "/></clipPath><clipPath id="2c9e120779"><rect x="0" width="302" y="0" height="42"/></clipPath><clipPath id="7336c74218"><rect x="0" width="302" y="0" height="213"/></clipPath></defs><g id="1d7dca936f"><g transform="matrix(1,0,0,1,37,69)"><g clip-path="url(#7336c74218)"><g clip-rule="nonzero" clip-path="url(#3060088871)"><g clip-rule="nonzero" clip-path="url(#7c072e4e72)"><path style=" stroke:none;fill-rule:nonzero;fill:#1c398e;fill-opacity:1;" d="M 95.382812 1.136719 C 91.25 1.816406 87.683594 3.96875 83.523438 8.242188 C 79.304688 12.597656 76.898438 16.390625 75.203125 21.429688 C 72.34375 29.949219 73.109375 39.824219 77.269531 47.609375 C 79.304688 51.457031 81.738281 54.230469 90.824219 63.257812 C 100.277344 72.628906 101.15625 73.304688 104.777344 74.269531 C 106.929688 74.804688 110.464844 74.804688 112.675781 74.242188 C 115.25 73.589844 117.371094 72.316406 119.917969 69.9375 L 122.238281 67.816406 L 125.75 71.324219 L 129.257812 74.835938 L 124.335938 79.757812 C 119.464844 84.628906 119.410156 84.65625 118.757812 84.203125 C 118.390625 83.949219 117.597656 83.75 116.949219 83.75 C 115.84375 83.75 115.644531 83.917969 95.777344 103.757812 C 84.769531 114.796875 75.371094 124.363281 74.917969 125.042969 C 73.304688 127.449219 72.824219 129.144531 72.824219 132.429688 C 72.851562 134.835938 72.964844 135.710938 73.476562 137.042969 C 74.410156 139.449219 76.449219 141.996094 78.542969 143.382812 C 81.03125 145.050781 82.929688 145.589844 86.238281 145.5625 C 89.210938 145.5625 91.050781 144.996094 93.34375 143.46875 C 94.023438 143.015625 103.589844 133.617188 114.625 122.609375 C 134.464844 102.742188 134.636719 102.542969 134.636719 101.4375 C 134.636719 100.789062 134.4375 99.996094 134.183594 99.628906 C 133.730469 98.976562 133.757812 98.917969 138.625 94.050781 L 143.550781 89.128906 L 152.125 97.703125 L 151.164062 98.949219 C 150.484375 99.855469 150.203125 100.503906 150.203125 101.242188 C 150.203125 102.230469 151.023438 103.109375 170.351562 122.46875 C 181.449219 133.5625 191.042969 143.015625 191.664062 143.4375 C 194.296875 145.277344 198.257812 146.097656 201.484375 145.476562 C 208.476562 144.117188 213.34375 137.296875 212.210938 130.390625 C 211.675781 127.050781 210.542969 125.097656 207.003906 121.476562 C 205.335938 119.75 203.550781 118.164062 203.097656 117.996094 C 201.34375 117.257812 199.449219 118.589844 199.449219 120.570312 C 199.449219 121.675781 199.617188 121.902344 202.390625 124.757812 C 204.003906 126.402344 205.589844 128.269531 205.898438 128.917969 C 207.34375 131.777344 206.890625 135.003906 204.683594 137.46875 C 202.5625 139.84375 199.53125 140.636719 196.449219 139.617188 C 195.203125 139.191406 193.644531 137.75 180.683594 124.816406 L 166.335938 110.496094 L 171.769531 105.0625 L 177.203125 99.597656 L 180.089844 102.429688 C 182.664062 104.976562 183.0625 105.257812 183.996094 105.257812 C 186.117188 105.257812 187.417969 103.417969 186.625 101.523438 C 186.371094 100.984375 182.578125 96.96875 177.597656 92.015625 C 169.476562 83.949219 168.9375 83.46875 167.976562 83.46875 C 167.238281 83.46875 166.589844 83.75 165.683594 84.429688 L 164.4375 85.390625 L 155.863281 76.816406 L 158.75 73.929688 L 161.664062 71.042969 L 167.183594 69.882812 C 184.730469 66.203125 198.089844 61.703125 204.9375 57.203125 C 209.691406 54.0625 213.882812 48.34375 215.976562 42.117188 C 218.550781 34.476562 217.84375 25.390625 214.164062 18.089844 C 211.25 12.316406 205.957031 7.050781 200.15625 4.164062 C 192.824219 0.515625 183.910156 -0.136719 176.269531 2.410156 C 170.976562 4.191406 165.175781 8.128906 162.285156 11.917969 C 157.277344 18.542969 152.578125 31.957031 148.503906 51.203125 L 147.34375 56.722656 L 144.457031 59.636719 L 141.570312 62.523438 L 134.496094 55.449219 L 136.109375 53.835938 C 138.316406 51.570312 139.871094 49.222656 140.636719 47.015625 C 141.175781 45.429688 141.285156 44.550781 141.257812 41.863281 C 141.230469 38.242188 140.777344 36.457031 139.109375 33.824219 C 138.0625 32.128906 112.957031 6.796875 110.4375 4.871094 C 106.164062 1.617188 100.675781 0.257812 95.382812 1.136719 Z M 101.949219 6.910156 C 105.542969 7.871094 105.910156 8.15625 120.683594 22.984375 C 133.730469 36.0625 134.609375 37.023438 135.175781 38.550781 C 135.964844 40.730469 135.964844 43.304688 135.175781 45.457031 C 134.691406 46.703125 134.042969 47.609375 132.484375 49.222656 L 130.449219 51.316406 L 126.710938 47.691406 C 122.324219 43.417969 121.023438 42.65625 117.964844 42.65625 C 114.738281 42.65625 112.078125 44.15625 110.578125 46.757812 C 108.996094 49.53125 108.882812 52.277344 110.210938 55.136719 C 110.464844 55.703125 112.335938 57.855469 114.371094 59.917969 L 118.050781 63.65625 L 116.210938 65.523438 C 115.222656 66.542969 113.777344 67.730469 112.984375 68.128906 C 111.710938 68.804688 111.257812 68.890625 108.738281 68.890625 C 104.4375 68.890625 104.496094 68.917969 94.785156 59.296875 C 85.757812 50.355469 83.691406 47.890625 81.796875 43.957031 C 79.730469 39.570312 79.335938 37.703125 79.335938 31.957031 C 79.335938 27.402344 79.417969 26.804688 80.097656 24.515625 C 80.976562 21.683594 82.390625 18.742188 84.0625 16.25 C 85.617188 13.984375 90.285156 9.316406 92.042969 8.296875 C 94.898438 6.628906 98.777344 6.089844 101.949219 6.910156 Z M 192.429688 7.304688 C 193.617188 7.617188 195.230469 8.15625 196.023438 8.496094 L 197.464844 9.117188 L 194.4375 10.589844 C 185.269531 15.003906 176.550781 22.929688 167.835938 34.789062 C 165.003906 38.636719 158.890625 47.578125 156.003906 52.136719 C 154.617188 54.257812 153.457031 55.957031 153.398438 55.902344 C 153.34375 55.84375 153.738281 53.722656 154.304688 51.175781 C 157.222656 37.789062 160.589844 26.949219 163.84375 20.355469 C 165.710938 16.5625 166.050781 16.078125 168.285156 13.84375 C 169.785156 12.371094 171.597656 10.929688 172.984375 10.109375 C 175.335938 8.722656 179.269531 7.25 181.929688 6.796875 C 184.277344 6.371094 189.910156 6.628906 192.429688 7.304688 Z M 204.484375 15.429688 C 204.796875 20.664062 196.53125 32.75 187.449219 40.363281 C 181.449219 45.402344 167.070312 55.417969 157.703125 61.109375 L 156.597656 61.789062 L 157.277344 60.683594 C 162.851562 51.484375 173.042969 36.882812 178.023438 30.9375 C 185.609375 21.882812 197.550781 13.703125 202.84375 13.929688 L 204.398438 13.984375 Z M 211.078125 25.902344 C 211.816406 28.789062 212.070312 33.203125 211.644531 35.917969 C 210.769531 41.4375 208.390625 46.222656 204.542969 50.097656 C 202.304688 52.363281 201.851562 52.644531 198.03125 54.542969 C 192.34375 57.316406 186.285156 59.382812 176.890625 61.789062 C 170.691406 63.371094 162.625 65.128906 162.457031 64.957031 C 162.371094 64.902344 162.625 64.675781 162.996094 64.476562 C 164.464844 63.710938 177.824219 54.710938 181.898438 51.769531 C 188.523438 46.957031 192.457031 43.675781 195.910156 40.136719 C 201.457031 34.417969 205.589844 28.757812 207.9375 23.691406 L 209.210938 20.917969 L 209.863281 22.304688 C 210.203125 23.070312 210.738281 24.683594 211.078125 25.902344 Z M 128.324219 57.484375 L 137.464844 66.628906 L 133.222656 70.871094 L 124.449219 62.097656 C 119.609375 57.289062 115.476562 52.902344 115.222656 52.390625 C 114.316406 50.46875 115.757812 48.371094 118.023438 48.371094 C 119.183594 48.371094 119.269531 48.457031 128.324219 57.484375 Z M 142.5625 81.910156 L 129.542969 94.929688 L 126.511719 91.871094 L 123.457031 88.84375 L 149.496094 62.804688 L 152.523438 65.835938 L 155.578125 68.890625 Z M 158.269531 91.675781 L 156.144531 93.796875 L 147.511719 85.164062 L 149.636719 83.042969 L 151.757812 80.917969 L 160.390625 89.550781 Z M 167.835938 101.070312 L 162.371094 106.53125 L 156.996094 101.15625 L 162.429688 95.722656 L 167.890625 90.257812 L 170.578125 92.949219 L 173.269531 95.636719 Z M 122.609375 95.917969 L 127.984375 101.296875 L 125.296875 103.984375 L 122.609375 106.675781 L 111.710938 95.777344 L 114.316406 93.175781 C 115.757812 91.730469 117.003906 90.542969 117.089844 90.542969 C 117.175781 90.542969 119.664062 92.949219 122.609375 95.917969 Z M 104.722656 124.5625 C 95.15625 134.128906 90.511719 138.570312 89.523438 139.136719 C 87.625 140.183594 84.484375 140.269531 82.675781 139.304688 C 81.175781 138.515625 79.871094 137.210938 79.078125 135.710938 C 78.203125 134.042969 78.203125 130.789062 79.136719 129.03125 C 79.5625 128.183594 84.316406 123.230469 93.683594 113.804688 L 107.609375 99.882812 L 118.503906 110.777344 Z M 104.722656 124.5625 "/></g></g><g clip-rule="nonzero" clip-path="url(#cf9d63348a)"><g clip-rule="nonzero" clip-path="url(#a4b96f7587)"><path style=" stroke:none;fill-rule:nonzero;fill:#1c398e;fill-opacity:1;" d="M 191.75 109.109375 C 190.757812 109.644531 190.390625 110.324219 190.390625 111.710938 C 190.390625 112.644531 190.5625 112.984375 191.269531 113.578125 C 191.804688 114.0625 192.484375 114.316406 193.078125 114.316406 C 193.675781 114.316406 194.351562 114.0625 194.890625 113.578125 C 195.597656 112.984375 195.769531 112.644531 195.769531 111.710938 C 195.769531 110.296875 195.398438 109.617188 194.351562 109.078125 C 193.335938 108.542969 192.738281 108.570312 191.75 109.109375 Z M 191.75 109.109375 "/></g></g><g clip-rule="nonzero" clip-path="url(#b14f1437b1)"><g transform="matrix(1,0,0,1,0,171)"><g id="94a543b812" clip-path="url(#2c9e120779)"><g style="fill:#1c398e;fill-opacity:1;"><g transform="translate(0.963698, 31.051476)"><path style="stroke:none" d="M 17 0.390625 C 13.9375 0.390625 11.285156 -0.128906 9.046875 -1.171875 C 6.804688 -2.222656 5.085938 -3.742188 3.890625 -5.734375 C 2.691406 -7.734375 2.09375 -10.175781 2.09375 -13.0625 C 2.09375 -15.019531 2.457031 -16.851562 3.1875 -18.5625 C 3.925781 -20.28125 4.984375 -21.796875 6.359375 -23.109375 C 7.734375 -24.421875 9.378906 -25.445312 11.296875 -26.1875 C 13.222656 -26.9375 15.367188 -27.3125 17.734375 -27.3125 C 18.691406 -27.3125 19.726562 -27.25 20.84375 -27.125 C 21.96875 -27 23.035156 -26.800781 24.046875 -26.53125 C 25.066406 -26.257812 25.910156 -25.890625 26.578125 -25.421875 L 26.734375 -20.328125 L 26.28125 -20.203125 C 25.757812 -21.546875 24.992188 -22.6875 23.984375 -23.625 C 22.984375 -24.570312 21.859375 -25.300781 20.609375 -25.8125 C 19.359375 -26.320312 18.066406 -26.578125 16.734375 -26.578125 C 14.671875 -26.578125 12.847656 -26.125 11.265625 -25.21875 C 9.679688 -24.320312 8.4375 -23.003906 7.53125 -21.265625 C 6.632812 -19.523438 6.1875 -17.367188 6.1875 -14.796875 C 6.1875 -12.941406 6.457031 -11.148438 7 -9.421875 C 7.539062 -7.703125 8.316406 -6.164062 9.328125 -4.8125 C 10.347656 -3.457031 11.597656 -2.382812 13.078125 -1.59375 C 14.554688 -0.8125 16.238281 -0.421875 18.125 -0.421875 C 20.289062 -0.421875 22.101562 -1.023438 23.5625 -2.234375 C 25.03125 -3.453125 26.113281 -5.066406 26.8125 -7.078125 L 27.3125 -7 L 26.703125 -1.46875 C 25.671875 -1 24.390625 -0.570312 22.859375 -0.1875 C 21.328125 0.195312 19.375 0.390625 17 0.390625 Z M 17 0.390625 "/></g></g><g style="fill:#1c398e;fill-opacity:1;"><g transform="translate(30.907242, 31.051476)"><path style="stroke:none" d="M 1.078125 0 L 1.078125 -0.546875 C 1.722656 -0.742188 2.140625 -1.171875 2.328125 -1.828125 C 2.523438 -2.492188 2.625 -3.519531 2.625 -4.90625 L 2.625 -13.796875 C 2.625 -14.929688 2.488281 -15.675781 2.21875 -16.03125 C 1.945312 -16.394531 1.566406 -16.679688 1.078125 -16.890625 L 1.078125 -17.421875 L 6.1875 -19.671875 L 6.5625 -19.359375 L 6.5625 -14.6875 C 7.15625 -16.070312 8.097656 -17.203125 9.390625 -18.078125 C 10.109375 -18.597656 10.847656 -18.976562 11.609375 -19.21875 C 12.367188 -19.46875 13.210938 -19.59375 14.140625 -19.59375 C 14.804688 -19.59375 15.382812 -19.5 15.875 -19.3125 C 16.363281 -19.132812 16.609375 -18.84375 16.609375 -18.4375 C 16.609375 -18.144531 16.507812 -17.800781 16.3125 -17.40625 C 16.125 -17.007812 15.835938 -16.660156 15.453125 -16.359375 C 15.066406 -16.066406 14.578125 -15.921875 13.984375 -15.921875 C 13.441406 -15.921875 12.773438 -16.015625 11.984375 -16.203125 C 11.203125 -16.398438 10.195312 -16.691406 8.96875 -17.078125 C 8.476562 -16.671875 7.96875 -16.066406 7.4375 -15.265625 C 6.90625 -14.460938 6.613281 -13.570312 6.5625 -12.59375 L 6.5625 -4.90625 C 6.5625 -3.519531 6.660156 -2.492188 6.859375 -1.828125 C 7.054688 -1.171875 7.472656 -0.742188 8.109375 -0.546875 L 8.109375 0 Z M 1.078125 0 "/></g></g><g style="fill:#1c398e;fill-opacity:1;"><g transform="translate(49.259776, 31.051476)"><path style="stroke:none" d="M 1.078125 0 L 1.078125 -0.546875 C 1.722656 -0.742188 2.140625 -1.171875 2.328125 -1.828125 C 2.523438 -2.492188 2.625 -3.519531 2.625 -4.90625 L 2.625 -13.796875 C 2.625 -14.929688 2.488281 -15.675781 2.21875 -16.03125 C 1.945312 -16.394531 1.566406 -16.679688 1.078125 -16.890625 L 1.078125 -17.421875 L 6.1875 -19.671875 L 6.5625 -19.359375 L 6.5625 -4.90625 C 6.5625 -3.519531 6.660156 -2.492188 6.859375 -1.828125 C 7.054688 -1.171875 7.472656 -0.742188 8.109375 -0.546875 L 8.109375 0 Z M 1.734375 -23.609375 C 1.734375 -24.359375 1.988281 -24.988281 2.5 -25.5 C 3.019531 -26.019531 3.640625 -26.28125 4.359375 -26.28125 C 5.140625 -26.28125 5.773438 -26.019531 6.265625 -25.5 C 6.753906 -24.988281 7 -24.359375 7 -23.609375 C 7 -22.890625 6.742188 -22.269531 6.234375 -21.75 C 5.734375 -21.238281 5.109375 -20.984375 4.359375 -20.984375 C 3.640625 -20.984375 3.019531 -21.238281 2.5 -21.75 C 1.988281 -22.269531 1.734375 -22.890625 1.734375 -23.609375 Z M 1.734375 -23.609375 "/></g></g><g style="fill:#1c398e;fill-opacity:1;"><g transform="translate(59.459975, 31.051476)"><path style="stroke:none" d="M 8.546875 0.3125 C 7.128906 0.3125 5.800781 0.132812 4.5625 -0.21875 C 3.320312 -0.582031 2.328125 -1.007812 1.578125 -1.5 L 1.203125 -6.5625 L 1.578125 -6.640625 C 2.410156 -4.785156 3.5 -3.269531 4.84375 -2.09375 C 6.195312 -0.925781 7.738281 -0.332031 9.46875 -0.3125 C 10.675781 -0.28125 11.632812 -0.601562 12.34375 -1.28125 C 13.050781 -1.96875 13.40625 -2.75 13.40625 -3.625 C 13.40625 -4.863281 12.9375 -5.789062 12 -6.40625 C 11.0625 -7.03125 9.753906 -7.597656 8.078125 -8.109375 C 6.734375 -8.523438 5.566406 -8.957031 4.578125 -9.40625 C 3.585938 -9.851562 2.828125 -10.429688 2.296875 -11.140625 C 1.765625 -11.847656 1.5 -12.785156 1.5 -13.953125 C 1.5 -14.929688 1.765625 -15.847656 2.296875 -16.703125 C 2.828125 -17.566406 3.644531 -18.265625 4.75 -18.796875 C 5.863281 -19.328125 7.296875 -19.59375 9.046875 -19.59375 C 10.148438 -19.59375 11.242188 -19.5 12.328125 -19.3125 C 13.410156 -19.132812 14.273438 -18.90625 14.921875 -18.625 L 15.109375 -14.375 L 14.640625 -14.296875 C 13.992188 -15.660156 13.097656 -16.789062 11.953125 -17.6875 C 10.804688 -18.59375 9.523438 -19.046875 8.109375 -19.046875 C 6.898438 -19.046875 5.925781 -18.757812 5.1875 -18.1875 C 4.457031 -17.625 4.09375 -16.929688 4.09375 -16.109375 C 4.09375 -15.023438 4.5625 -14.191406 5.5 -13.609375 C 6.445312 -13.035156 7.78125 -12.453125 9.5 -11.859375 C 10.53125 -11.523438 11.539062 -11.148438 12.53125 -10.734375 C 13.53125 -10.328125 14.359375 -9.753906 15.015625 -9.015625 C 15.671875 -8.285156 16 -7.265625 16 -5.953125 C 16 -4.972656 15.765625 -4 15.296875 -3.03125 C 14.835938 -2.0625 14.066406 -1.257812 12.984375 -0.625 C 11.898438 0 10.421875 0.3125 8.546875 0.3125 Z M 8.546875 0.3125 "/></g></g><g style="fill:#1c398e;fill-opacity:1;"><g transform="translate(77.696603, 31.051476)"><path style="stroke:none" d="M 7.265625 0.390625 C 5.953125 0.390625 4.953125 -0.0546875 4.265625 -0.953125 C 3.585938 -1.859375 3.25 -3.359375 3.25 -5.453125 L 3.25 -18.703125 L 0.765625 -18.703125 L 0.765625 -19.328125 L 6.5625 -24.421875 L 7.1875 -24.421875 L 7.1875 -19.328125 L 13.171875 -19.328125 L 13.015625 -18.703125 L 7.1875 -18.703125 L 7.1875 -5.40625 C 7.1875 -4.21875 7.40625 -3.347656 7.84375 -2.796875 C 8.28125 -2.242188 8.925781 -1.96875 9.78125 -1.96875 C 10.21875 -1.96875 10.738281 -2.085938 11.34375 -2.328125 C 11.945312 -2.578125 12.570312 -3.101562 13.21875 -3.90625 L 13.59375 -3.515625 C 12.570312 -2.328125 11.550781 -1.378906 10.53125 -0.671875 C 9.507812 0.0351562 8.421875 0.390625 7.265625 0.390625 Z M 7.265625 0.390625 "/></g></g><g style="fill:#1c398e;fill-opacity:1;"><g transform="translate(92.378662, 31.051476)"><path style="stroke:none" d="M 1.078125 0 L 1.078125 -0.546875 C 1.722656 -0.742188 2.140625 -1.171875 2.328125 -1.828125 C 2.523438 -2.492188 2.625 -3.519531 2.625 -4.90625 L 2.625 -13.796875 C 2.625 -14.929688 2.488281 -15.675781 2.21875 -16.03125 C 1.945312 -16.394531 1.566406 -16.679688 1.078125 -16.890625 L 1.078125 -17.421875 L 6.1875 -19.671875 L 6.5625 -19.359375 L 6.5625 -4.90625 C 6.5625 -3.519531 6.660156 -2.492188 6.859375 -1.828125 C 7.054688 -1.171875 7.472656 -0.742188 8.109375 -0.546875 L 8.109375 0 Z M 1.734375 -23.609375 C 1.734375 -24.359375 1.988281 -24.988281 2.5 -25.5 C 3.019531 -26.019531 3.640625 -26.28125 4.359375 -26.28125 C 5.140625 -26.28125 5.773438 -26.019531 6.265625 -25.5 C 6.753906 -24.988281 7 -24.359375 7 -23.609375 C 7 -22.890625 6.742188 -22.269531 6.234375 -21.75 C 5.734375 -21.238281 5.109375 -20.984375 4.359375 -20.984375 C 3.640625 -20.984375 3.019531 -21.238281 2.5 -21.75 C 1.988281 -22.269531 1.734375 -22.890625 1.734375 -23.609375 Z M 1.734375 -23.609375 "/></g></g><g style="fill:#1c398e;fill-opacity:1;"><g transform="translate(102.578861, 31.051476)"><path style="stroke:none" d="M 15.84375 0 C 14.8125 0 14.296875 -0.515625 14.296875 -1.546875 L 14.296875 -7.921875 C 13.929688 -6.429688 13.390625 -5.050781 12.671875 -3.78125 C 11.953125 -2.519531 11.0625 -1.507812 10 -0.75 C 8.945312 0.0078125 7.753906 0.390625 6.421875 0.390625 C 5.003906 0.390625 3.769531 -0.046875 2.71875 -0.921875 C 1.675781 -1.796875 1.15625 -3.046875 1.15625 -4.671875 C 1.15625 -6.015625 1.5625 -7.101562 2.375 -7.9375 C 3.1875 -8.78125 4.257812 -9.484375 5.59375 -10.046875 C 6.9375 -10.609375 8.410156 -11.109375 10.015625 -11.546875 L 14.296875 -12.796875 C 14.273438 -14.703125 13.789062 -16.054688 12.84375 -16.859375 C 11.90625 -17.671875 10.71875 -18.078125 9.28125 -18.078125 C 8.195312 -18.078125 7.125 -17.828125 6.0625 -17.328125 C 5.007812 -16.828125 3.992188 -15.984375 3.015625 -14.796875 L 2.625 -15.140625 C 3.707031 -16.484375 4.984375 -17.5625 6.453125 -18.375 C 7.921875 -19.1875 9.53125 -19.59375 11.28125 -19.59375 C 13.625 -19.59375 15.351562 -18.976562 16.46875 -17.75 C 17.59375 -16.53125 18.15625 -14.734375 18.15625 -12.359375 L 18.15625 -4.90625 C 18.15625 -3.519531 18.25 -2.492188 18.4375 -1.828125 C 18.632812 -1.171875 19.054688 -0.742188 19.703125 -0.546875 L 19.703125 0 Z M 4.75 -6.03125 C 4.75 -4.769531 5.128906 -3.851562 5.890625 -3.28125 C 6.648438 -2.71875 7.46875 -2.4375 8.34375 -2.4375 C 9.300781 -2.4375 10.144531 -2.722656 10.875 -3.296875 C 11.613281 -3.878906 12.234375 -4.628906 12.734375 -5.546875 C 13.234375 -6.460938 13.617188 -7.421875 13.890625 -8.421875 C 14.160156 -9.429688 14.296875 -10.375 14.296875 -11.25 L 14.296875 -12.25 L 10.15625 -11.046875 C 9.695312 -10.921875 9.164062 -10.734375 8.5625 -10.484375 C 7.957031 -10.242188 7.363281 -9.929688 6.78125 -9.546875 C 6.195312 -9.160156 5.710938 -8.675781 5.328125 -8.09375 C 4.941406 -7.507812 4.75 -6.820312 4.75 -6.03125 Z M 4.75 -6.03125 "/></g></g><g style="fill:#1c398e;fill-opacity:1;"><g transform="translate(123.983694, 31.051476)"><path style="stroke:none" d="M 1.078125 0 L 1.078125 -0.546875 C 1.722656 -0.742188 2.140625 -1.171875 2.328125 -1.828125 C 2.523438 -2.492188 2.625 -3.519531 2.625 -4.90625 L 2.625 -13.796875 C 2.625 -14.929688 2.488281 -15.675781 2.21875 -16.03125 C 1.945312 -16.394531 1.566406 -16.679688 1.078125 -16.890625 L 1.078125 -17.421875 L 6.1875 -19.671875 L 6.5625 -19.359375 L 6.5625 -16.109375 C 7.625 -16.984375 8.835938 -17.78125 10.203125 -18.5 C 11.566406 -19.226562 12.992188 -19.59375 14.484375 -19.59375 C 16.265625 -19.59375 17.703125 -19.09375 18.796875 -18.09375 C 19.890625 -17.101562 20.4375 -15.476562 20.4375 -13.21875 L 20.4375 -4.90625 C 20.4375 -3.519531 20.53125 -2.492188 20.71875 -1.828125 C 20.914062 -1.171875 21.335938 -0.742188 21.984375 -0.546875 L 21.984375 0 L 14.953125 0 L 14.953125 -0.546875 C 15.597656 -0.742188 16.015625 -1.171875 16.203125 -1.828125 C 16.398438 -2.492188 16.5 -3.519531 16.5 -4.90625 L 16.5 -12.515625 C 16.5 -14.265625 16.128906 -15.625 15.390625 -16.59375 C 14.660156 -17.5625 13.578125 -18.046875 12.140625 -18.046875 C 11.234375 -18.046875 10.34375 -17.828125 9.46875 -17.390625 C 8.59375 -16.953125 7.625 -16.304688 6.5625 -15.453125 L 6.5625 -4.90625 C 6.5625 -3.519531 6.660156 -2.492188 6.859375 -1.828125 C 7.054688 -1.171875 7.472656 -0.742188 8.109375 -0.546875 L 8.109375 0 Z M 1.078125 0 "/></g></g><g style="fill:#1c398e;fill-opacity:1;"><g transform="translate(147.668099, 31.051476)"><path style="stroke:none" d="M 1.15625 -17.578125 C 2.164062 -18.066406 2.929688 -18.800781 3.453125 -19.78125 C 3.984375 -20.757812 4.285156 -21.753906 4.359375 -22.765625 C 4.210938 -22.734375 4.0625 -22.695312 3.90625 -22.65625 C 3.75 -22.625 3.582031 -22.609375 3.40625 -22.609375 C 2.78125 -22.609375 2.257812 -22.8125 1.84375 -23.21875 C 1.4375 -23.632812 1.234375 -24.148438 1.234375 -24.765625 C 1.234375 -25.515625 1.453125 -26.125 1.890625 -26.59375 C 2.328125 -27.070312 2.90625 -27.3125 3.625 -27.3125 C 4.457031 -27.3125 5.128906 -27.050781 5.640625 -26.53125 C 6.160156 -26.019531 6.421875 -25.203125 6.421875 -24.078125 C 6.421875 -23.046875 6.15625 -22.050781 5.625 -21.09375 C 5.09375 -20.144531 4.441406 -19.328125 3.671875 -18.640625 C 2.898438 -17.960938 2.128906 -17.476562 1.359375 -17.1875 Z M 1.15625 -17.578125 "/></g></g><g style="fill:#1c398e;fill-opacity:1;"><g transform="translate(156.941017, 31.051476)"><path style="stroke:none" d="M 8.546875 0.3125 C 7.128906 0.3125 5.800781 0.132812 4.5625 -0.21875 C 3.320312 -0.582031 2.328125 -1.007812 1.578125 -1.5 L 1.203125 -6.5625 L 1.578125 -6.640625 C 2.410156 -4.785156 3.5 -3.269531 4.84375 -2.09375 C 6.195312 -0.925781 7.738281 -0.332031 9.46875 -0.3125 C 10.675781 -0.28125 11.632812 -0.601562 12.34375 -1.28125 C 13.050781 -1.96875 13.40625 -2.75 13.40625 -3.625 C 13.40625 -4.863281 12.9375 -5.789062 12 -6.40625 C 11.0625 -7.03125 9.753906 -7.597656 8.078125 -8.109375 C 6.734375 -8.523438 5.566406 -8.957031 4.578125 -9.40625 C 3.585938 -9.851562 2.828125 -10.429688 2.296875 -11.140625 C 1.765625 -11.847656 1.5 -12.785156 1.5 -13.953125 C 1.5 -14.929688 1.765625 -15.847656 2.296875 -16.703125 C 2.828125 -17.566406 3.644531 -18.265625 4.75 -18.796875 C 5.863281 -19.328125 7.296875 -19.59375 9.046875 -19.59375 C 10.148438 -19.59375 11.242188 -19.5 12.328125 -19.3125 C 13.410156 -19.132812 14.273438 -18.90625 14.921875 -18.625 L 15.109375 -14.375 L 14.640625 -14.296875 C 13.992188 -15.660156 13.097656 -16.789062 11.953125 -17.6875 C 10.804688 -18.59375 9.523438 -19.046875 8.109375 -19.046875 C 6.898438 -19.046875 5.925781 -18.757812 5.1875 -18.1875 C 4.457031 -17.625 4.09375 -16.929688 4.09375 -16.109375 C 4.09375 -15.023438 4.5625 -14.191406 5.5 -13.609375 C 6.445312 -13.035156 7.78125 -12.453125 9.5 -11.859375 C 10.53125 -11.523438 11.539062 -11.148438 12.53125 -10.734375 C 13.53125 -10.328125 14.359375 -9.753906 15.015625 -9.015625 C 15.671875 -8.285156 16 -7.265625 16 -5.953125 C 16 -4.972656 15.765625 -4 15.296875 -3.03125 C 14.835938 -2.0625 14.066406 -1.257812 12.984375 -0.625 C 11.898438 0 10.421875 0.3125 8.546875 0.3125 Z M 8.546875 0.3125 "/></g></g><g style="fill:#1c398e;fill-opacity:1;"><g transform="translate(175.177645, 31.051476)"><path style="stroke:none" d=""/></g></g><g clip-rule="nonzero" clip-path="url(#df01ad6747)"><g style="fill:#1c398e;fill-opacity:1;"><g transform="translate(183.832376, 31.051476)"><path style="stroke:none" d="M 11.59375 0.34375 C 10.71875 0.34375 9.875 0.226562 9.0625 0 C 8.25 -0.226562 7.507812 -0.535156 6.84375 -0.921875 L 6.84375 5.53125 C 6.84375 6.914062 6.9375 7.9375 7.125 8.59375 C 7.320312 9.25 7.742188 9.679688 8.390625 9.890625 L 8.390625 10.4375 L 1.359375 10.4375 L 1.359375 9.890625 C 1.992188 9.679688 2.40625 9.25 2.59375 8.59375 C 2.789062 7.9375 2.890625 6.914062 2.890625 5.53125 L 2.890625 -13.796875 C 2.890625 -14.929688 2.753906 -15.675781 2.484375 -16.03125 C 2.222656 -16.394531 1.847656 -16.679688 1.359375 -16.890625 L 1.359375 -17.421875 L 6.453125 -19.671875 L 6.84375 -19.359375 L 6.84375 -16.84375 C 7.875 -17.5625 9 -18.195312 10.21875 -18.75 C 11.445312 -19.3125 12.726562 -19.59375 14.0625 -19.59375 C 15.664062 -19.59375 17.050781 -19.1875 18.21875 -18.375 C 19.394531 -17.5625 20.300781 -16.453125 20.9375 -15.046875 C 21.582031 -13.640625 21.90625 -12.050781 21.90625 -10.28125 C 21.90625 -8.320312 21.484375 -6.535156 20.640625 -4.921875 C 19.804688 -3.316406 18.617188 -2.035156 17.078125 -1.078125 C 15.535156 -0.128906 13.707031 0.34375 11.59375 0.34375 Z M 6.84375 -6.453125 C 6.84375 -5.785156 7.035156 -5.097656 7.421875 -4.390625 C 7.804688 -3.679688 8.304688 -3.019531 8.921875 -2.40625 C 9.546875 -1.800781 10.222656 -1.3125 10.953125 -0.9375 C 11.691406 -0.570312 12.421875 -0.390625 13.140625 -0.390625 C 14.523438 -0.390625 15.59375 -0.722656 16.34375 -1.390625 C 17.09375 -2.054688 17.601562 -2.925781 17.875 -4 C 18.144531 -5.070312 18.28125 -6.1875 18.28125 -7.34375 C 18.28125 -8.039062 18.21875 -8.851562 18.09375 -9.78125 C 17.976562 -10.707031 17.78125 -11.644531 17.5 -12.59375 C 17.21875 -13.550781 16.8125 -14.441406 16.28125 -15.265625 C 15.757812 -16.085938 15.097656 -16.75 14.296875 -17.25 C 13.492188 -17.75 12.515625 -18 11.359375 -18 C 10.503906 -18 9.703125 -17.828125 8.953125 -17.484375 C 8.210938 -17.140625 7.507812 -16.707031 6.84375 -16.1875 Z M 6.84375 -6.453125 "/></g></g></g><g style="fill:#1c398e;fill-opacity:1;"><g transform="translate(207.478088, 31.051476)"><path style="stroke:none" d="M 15.84375 0 C 14.8125 0 14.296875 -0.515625 14.296875 -1.546875 L 14.296875 -7.921875 C 13.929688 -6.429688 13.390625 -5.050781 12.671875 -3.78125 C 11.953125 -2.519531 11.0625 -1.507812 10 -0.75 C 8.945312 0.0078125 7.753906 0.390625 6.421875 0.390625 C 5.003906 0.390625 3.769531 -0.046875 2.71875 -0.921875 C 1.675781 -1.796875 1.15625 -3.046875 1.15625 -4.671875 C 1.15625 -6.015625 1.5625 -7.101562 2.375 -7.9375 C 3.1875 -8.78125 4.257812 -9.484375 5.59375 -10.046875 C 6.9375 -10.609375 8.410156 -11.109375 10.015625 -11.546875 L 14.296875 -12.796875 C 14.273438 -14.703125 13.789062 -16.054688 12.84375 -16.859375 C 11.90625 -17.671875 10.71875 -18.078125 9.28125 -18.078125 C 8.195312 -18.078125 7.125 -17.828125 6.0625 -17.328125 C 5.007812 -16.828125 3.992188 -15.984375 3.015625 -14.796875 L 2.625 -15.140625 C 3.707031 -16.484375 4.984375 -17.5625 6.453125 -18.375 C 7.921875 -19.1875 9.53125 -19.59375 11.28125 -19.59375 C 13.625 -19.59375 15.351562 -18.976562 16.46875 -17.75 C 17.59375 -16.53125 18.15625 -14.734375 18.15625 -12.359375 L 18.15625 -4.90625 C 18.15625 -3.519531 18.25 -2.492188 18.4375 -1.828125 C 18.632812 -1.171875 19.054688 -0.742188 19.703125 -0.546875 L 19.703125 0 Z M 4.75 -6.03125 C 4.75 -4.769531 5.128906 -3.851562 5.890625 -3.28125 C 6.648438 -2.71875 7.46875 -2.4375 8.34375 -2.4375 C 9.300781 -2.4375 10.144531 -2.722656 10.875 -3.296875 C 11.613281 -3.878906 12.234375 -4.628906 12.734375 -5.546875 C 13.234375 -6.460938 13.617188 -7.421875 13.890625 -8.421875 C 14.160156 -9.429688 14.296875 -10.375 14.296875 -11.25 L 14.296875 -12.25 L 10.15625 -11.046875 C 9.695312 -10.921875 9.164062 -10.734375 8.5625 -10.484375 C 7.957031 -10.242188 7.363281 -9.929688 6.78125 -9.546875 C 6.195312 -9.160156 5.710938 -8.675781 5.328125 -8.09375 C 4.941406 -7.507812 4.75 -6.820312 4.75 -6.03125 Z M 4.75 -6.03125 "/></g></g><g style="fill:#1c398e;fill-opacity:1;"><g transform="translate(229.230673, 31.051476)"><path style="stroke:none" d="M 8.546875 0.3125 C 7.128906 0.3125 5.800781 0.132812 4.5625 -0.21875 C 3.320312 -0.582031 2.328125 -1.007812 1.578125 -1.5 L 1.203125 -6.5625 L 1.578125 -6.640625 C 2.410156 -4.785156 3.5 -3.269531 4.84375 -2.09375 C 6.195312 -0.925781 7.738281 -0.332031 9.46875 -0.3125 C 10.675781 -0.28125 11.632812 -0.601562 12.34375 -1.28125 C 13.050781 -1.96875 13.40625 -2.75 13.40625 -3.625 C 13.40625 -4.863281 12.9375 -5.789062 12 -6.40625 C 11.0625 -7.03125 9.753906 -7.597656 8.078125 -8.109375 C 6.734375 -8.523438 5.566406 -8.957031 4.578125 -9.40625 C 3.585938 -9.851562 2.828125 -10.429688 2.296875 -11.140625 C 1.765625 -11.847656 1.5 -12.785156 1.5 -13.953125 C 1.5 -14.929688 1.765625 -15.847656 2.296875 -16.703125 C 2.828125 -17.566406 3.644531 -18.265625 4.75 -18.796875 C 5.863281 -19.328125 7.296875 -19.59375 9.046875 -19.59375 C 10.148438 -19.59375 11.242188 -19.5 12.328125 -19.3125 C 13.410156 -19.132812 14.273438 -18.90625 14.921875 -18.625 L 15.109375 -14.375 L 14.640625 -14.296875 C 13.992188 -15.660156 13.097656 -16.789062 11.953125 -17.6875 C 10.804688 -18.59375 9.523438 -19.046875 8.109375 -19.046875 C 6.898438 -19.046875 5.925781 -18.757812 5.1875 -18.1875 C 4.457031 -17.625 4.09375 -16.929688 4.09375 -16.109375 C 4.09375 -15.023438 4.5625 -14.191406 5.5 -13.609375 C 6.445312 -13.035156 7.78125 -12.453125 9.5 -11.859375 C 10.53125 -11.523438 11.539062 -11.148438 12.53125 -10.734375 C 13.53125 -10.328125 14.359375 -9.753906 15.015625 -9.015625 C 15.671875 -8.285156 16 -7.265625 16 -5.953125 C 16 -4.972656 15.765625 -4 15.296875 -3.03125 C 14.835938 -2.0625 14.066406 -1.257812 12.984375 -0.625 C 11.898438 0 10.421875 0.3125 8.546875 0.3125 Z M 8.546875 0.3125 "/></g></g><g style="fill:#1c398e;fill-opacity:1;"><g transform="translate(247.467312, 31.051476)"><path style="stroke:none" d="M 7.265625 0.390625 C 5.953125 0.390625 4.953125 -0.0546875 4.265625 -0.953125 C 3.585938 -1.859375 3.25 -3.359375 3.25 -5.453125 L 3.25 -18.703125 L 0.765625 -18.703125 L 0.765625 -19.328125 L 6.5625 -24.421875 L 7.1875 -24.421875 L 7.1875 -19.328125 L 13.171875 -19.328125 L 13.015625 -18.703125 L 7.1875 -18.703125 L 7.1875 -5.40625 C 7.1875 -4.21875 7.40625 -3.347656 7.84375 -2.796875 C 8.28125 -2.242188 8.925781 -1.96875 9.78125 -1.96875 C 10.21875 -1.96875 10.738281 -2.085938 11.34375 -2.328125 C 11.945312 -2.578125 12.570312 -3.101562 13.21875 -3.90625 L 13.59375 -3.515625 C 12.570312 -2.328125 11.550781 -1.378906 10.53125 -0.671875 C 9.507812 0.0351562 8.421875 0.390625 7.265625 0.390625 Z M 7.265625 0.390625 "/></g></g><g style="fill:#1c398e;fill-opacity:1;"><g transform="translate(262.149349, 31.051476)"><path style="stroke:none" d="M 1.078125 0 L 1.078125 -0.546875 C 1.722656 -0.742188 2.140625 -1.171875 2.328125 -1.828125 C 2.523438 -2.492188 2.625 -3.519531 2.625 -4.90625 L 2.625 -13.796875 C 2.625 -14.929688 2.488281 -15.675781 2.21875 -16.03125 C 1.945312 -16.394531 1.566406 -16.679688 1.078125 -16.890625 L 1.078125 -17.421875 L 6.1875 -19.671875 L 6.5625 -19.359375 L 6.5625 -14.6875 C 7.15625 -16.070312 8.097656 -17.203125 9.390625 -18.078125 C 10.109375 -18.597656 10.847656 -18.976562 11.609375 -19.21875 C 12.367188 -19.46875 13.210938 -19.59375 14.140625 -19.59375 C 14.804688 -19.59375 15.382812 -19.5 15.875 -19.3125 C 16.363281 -19.132812 16.609375 -18.84375 16.609375 -18.4375 C 16.609375 -18.144531 16.507812 -17.800781 16.3125 -17.40625 C 16.125 -17.007812 15.835938 -16.660156 15.453125 -16.359375 C 15.066406 -16.066406 14.578125 -15.921875 13.984375 -15.921875 C 13.441406 -15.921875 12.773438 -16.015625 11.984375 -16.203125 C 11.203125 -16.398438 10.195312 -16.691406 8.96875 -17.078125 C 8.476562 -16.671875 7.96875 -16.066406 7.4375 -15.265625 C 6.90625 -14.460938 6.613281 -13.570312 6.5625 -12.59375 L 6.5625 -4.90625 C 6.5625 -3.519531 6.660156 -2.492188 6.859375 -1.828125 C 7.054688 -1.171875 7.472656 -0.742188 8.109375 -0.546875 L 8.109375 0 Z M 1.078125 0 "/></g></g><g style="fill:#1c398e;fill-opacity:1;"><g transform="translate(280.501894, 31.051476)"><path style="stroke:none" d="M 1.390625 7.453125 C 0.585938 7.484375 -0.0820312 7.378906 -0.625 7.140625 C -1.164062 6.910156 -1.4375 6.601562 -1.4375 6.21875 C -1.4375 5.957031 -1.320312 5.640625 -1.09375 5.265625 C -0.875 4.898438 -0.546875 4.5625 -0.109375 4.25 C 0.328125 3.9375 0.84375 3.78125 1.4375 3.78125 C 2 3.78125 2.757812 3.851562 3.71875 4 C 4.6875 4.144531 5.675781 4.304688 6.6875 4.484375 C 7.144531 3.960938 7.601562 3.332031 8.0625 2.59375 C 8.53125 1.863281 8.972656 1.0625 9.390625 0.1875 L 2.890625 -14.796875 C 2.359375 -16.085938 1.832031 -17.019531 1.3125 -17.59375 C 0.800781 -18.175781 0.328125 -18.570312 -0.109375 -18.78125 L -0.109375 -19.328125 L 6.71875 -19.328125 L 6.71875 -18.78125 C 6.070312 -18.570312 5.835938 -18.179688 6.015625 -17.609375 C 6.203125 -17.046875 6.582031 -16.125 7.15625 -14.84375 L 11.546875 -4.796875 L 15.875 -14.796875 C 16.414062 -16.085938 16.648438 -17.035156 16.578125 -17.640625 C 16.503906 -18.242188 16.128906 -18.625 15.453125 -18.78125 L 15.453125 -19.328125 L 19.859375 -19.328125 L 19.859375 -18.78125 C 19.296875 -18.570312 18.734375 -18.179688 18.171875 -17.609375 C 17.617188 -17.046875 17.0625 -16.125 16.5 -14.84375 L 10.59375 -1.15625 C 9.613281 1.082031 8.644531 2.828125 7.6875 4.078125 C 6.738281 5.328125 5.75 6.195312 4.71875 6.6875 C 3.6875 7.175781 2.578125 7.429688 1.390625 7.453125 Z M 1.390625 7.453125 "/></g></g></g></g></g></g></g></g></svg>